<svg height="24" viewBox="0 0 24 24" width="24" xmlns="http://www.w3.org/2000/svg"><g fill="none" fill-rule="evenodd"><path d="M0 24h24V0H0z"/><path d="M15.355 17.68c-1.11 0-2.31-.293-3.514-.859-1.34-.63-2.658-.892-3.82-.749-1.335.16-2.4.602-3.564 1.478a.377.377 0 0 1-.526-.074.377.377 0 0 1 .074-.526c1.26-.947 2.471-1.448 3.925-1.624 1.3-.155 2.763.126 4.23.816 1.341.631 2.665.892 3.82.75 1.332-.16 2.399-.602 3.563-1.478a.376.376 0 0 1 .452.599c-1.261.948-2.471 1.45-3.925 1.624a5.992 5.992 0 0 1-.715.042m-.001-2.988c-1.11 0-2.31-.291-3.513-.857-1.34-.63-2.663-.889-3.82-.75-1.334.16-2.399.602-3.564 1.478a.376.376 0 0 1-.452-.6c1.261-.948 2.472-1.448 3.925-1.623 1.304-.156 2.764.126 4.23.816 1.338.629 2.656.89 3.82.749 1.333-.16 2.399-.602 3.563-1.478a.376.376 0 0 1 .452.6c-1.26.948-2.471 1.448-3.925 1.623a6.01 6.01 0 0 1-.716.042m0-2.988c-1.11 0-2.31-.291-3.513-.857-1.34-.63-2.658-.892-3.82-.75-1.334.16-2.399.602-3.564 1.478a.378.378 0 0 1-.526-.074.377.377 0 0 1 .074-.526c1.261-.948 2.472-1.448 3.925-1.623 1.3-.153 2.763.125 4.23.816 1.338.629 2.656.89 3.82.749 1.332-.16 2.397-.601 3.563-1.478a.376.376 0 0 1 .451.6c-1.26.948-2.471 1.449-3.925 1.623a6.01 6.01 0 0 1-.715.042m.001-2.988c-1.11 0-2.31-.292-3.514-.858-1.34-.63-2.658-.892-3.82-.75-1.335.16-2.4.603-3.564 1.479a.378.378 0 0 1-.526-.074.377.377 0 0 1 .074-.526c1.26-.947 2.471-1.448 3.925-1.624 1.3-.154 2.763.126 4.23.816 1.341.63 2.665.89 3.82.75 1.332-.16 2.399-.602 3.563-1.478a.376.376 0 0 1 .452.599c-1.261.948-2.471 1.449-3.925 1.624a5.992 5.992 0 0 1-.715.042" fill="#cad4db"/></g></svg>